#N canvas 579 271 698 416 10;
#X obj 44 41 inlet~ carrier;
#X obj 150 40 inlet~ cm;
#X obj 227 41 inlet~ index;
#X obj 41 183 +~;
#X obj 142 107 *~;
#X obj 41 215 osc~;
#X obj 141 131 osc~;
#X obj 142 158 *~;
#X obj 38 256 outlet~;
#X text 230 20 Modulation Index;
#X text 35 18 Carrier Freq;
#X connect 0 0 4 0;
#X connect 0 0 3 0;
#X connect 1 0 4 1;
#X connect 2 0 7 1;
#X connect 3 0 5 0;
#X connect 4 0 6 0;
#X connect 5 0 8 0;
#X connect 6 0 7 0;
#X connect 7 0 3 1;
