#N canvas 246 26 856 591 10;
#N canvas 507 351 631 329 waves 0;
#X obj 148 135 osc~;
#X obj 306 135 phasor~;
#X obj 306 162 *~ 2;
#X obj 306 193 -~ 1;
#X obj 148 189 clip~ -1 1;
#X obj 148 164 *~ 1000;
#X obj 405 138 noise~;
#X obj 135 61 inlet~ frequency;
#X obj 149 237 outlet~;
#X obj 307 234 outlet~;
#X obj 283 61 inlet~ phase;
#X obj 405 234 outlet~;
#X obj 47 230 outlet~;
#X obj 404 61 r \$0-frequency;
#X obj 403 181 samphold~;
#X connect 0 0 5 0;
#X connect 0 0 12 0;
#X connect 1 0 2 0;
#X connect 1 0 14 1;
#X connect 2 0 3 0;
#X connect 3 0 9 0;
#X connect 4 0 8 0;
#X connect 5 0 4 0;
#X connect 6 0 14 0;
#X connect 7 0 0 0;
#X connect 7 0 1 0;
#X connect 10 0 0 0;
#X connect 10 0 1 0;
#X connect 14 0 11 0;
#X restore 355 203 pd waves;
#X text 324 202 freq;
#X text 412 202 phase;
#X obj 355 319 *~;
#X text 435 18 LFO;
#X obj 424 319 *~;
#X obj 491 319 *~;
#X obj 565 319 *~;
#X obj 422 400 *~;
#X obj 375 285 == 0;
#X obj 447 285 == 1;
#X obj 519 283 == 2;
#X obj 589 284 == 3;
#X text 569 372 Amplitude;
#X obj 353 110 sig~;
#X obj 127 126 hsl 128 15 0 127 0 0 \$0-frequency empty empty -2 -8
0 10 -262144 -1 -1 10500 1;
#X obj 353 77 r \$0-frequency;
#X obj 422 181 f;
#X obj 618 244 hradio 15 1 0 4 empty empty empty 0 -8 0 10 -262144
-1 -1 3;
#X obj 125 201 bng 15 250 50 0 \$0-phase-sync empty empty 17 7 0 10
-262144 -1 -1;
#X obj 395 142 r \$0-phase-sync;
#X obj 128 162 hsl 128 15 0 1 0 0 \$0-phase empty empty -2 -8 0 10
-262144 -1 -1 2100 1;
#X obj 498 145 r \$0-phase;
#X obj 126 238 vradio 15 1 0 4 \$0-wavetype empty empty 0 -8 0 10 -262144
-1 -1 3;
#X obj 618 218 r \$0-wavetype;
#X text 150 200 Phase Sync;
#X text 125 105 Frequency;
#X text 126 146 Phase;
#X obj 126 327 hsl 128 15 0 127 0 0 \$0-amp empty empty -2 -8 0 10
-262144 -1 -1 12100 1;
#X obj 508 369 r \$0-amp;
#X text 144 238 Sine;
#X text 143 253 Square;
#X text 143 268 Saw;
#X text 143 284 Noise;
#X text 120 304 Amplitude;
#X floatatom 639 265 5 0 0 0 - - -;
#X obj 418 446 outlet~;
#X obj 479 397 *~;
#X floatatom 223 348 5 0 0 0 - - -;
#X obj 104 62 inlet;
#X connect 0 0 3 0;
#X connect 0 1 5 0;
#X connect 0 2 6 0;
#X connect 0 3 7 0;
#X connect 3 0 8 0;
#X connect 5 0 8 0;
#X connect 6 0 8 0;
#X connect 7 0 8 0;
#X connect 8 0 36 0;
#X connect 9 0 3 1;
#X connect 10 0 5 1;
#X connect 11 0 6 1;
#X connect 12 0 7 1;
#X connect 14 0 0 0;
#X connect 16 0 14 0;
#X connect 17 0 0 1;
#X connect 18 0 35 0;
#X connect 18 0 9 0;
#X connect 18 0 10 0;
#X connect 18 0 11 0;
#X connect 18 0 12 0;
#X connect 20 0 17 0;
#X connect 22 0 17 1;
#X connect 24 0 18 0;
#X connect 29 0 37 0;
#X connect 37 0 8 1;
#X connect 38 0 37 1;
#X connect 39 0 19 0;
#X coords 0 -1 1 1 200 300 1 100 100;
