#N canvas 0 23 1279 705 10;
#X obj 506 176 FM_CM;
#X obj 551 154 +~;
#X obj 668 90 sig~ 10;
#X obj 427 106 sig~ 100;
#X obj 729 -55 vsl 15 128 0 127 0 0 empty empty empty 0 -9 0 10 -262144
-1 -1 9200 1;
#X text 750 -78 10000;
#X text 752 59 0;
#X text 426 85 Carrier;
#X text 723 91 modindex;
#X obj 449 148 +~;
#X msg 418 -11 100;
#X msg 441 -42 200;
#X msg 469 -11 150;
#X msg 511 -10 50;
#X msg 494 -43 300;
#X msg 543 -44 250;
#X floatatom 521 91 5 0 0 0 - - -;
#X obj 520 116 sig~ 7;
#X obj 298 -182 f;
#X obj 852 -150 LFO;
#X obj 678 342 writesf~ 2;
#X msg 711 293 start;
#X msg 758 292 stop;
#X obj 509 350 output~;
#X obj 37 -151 LFO;
#X obj 393 271 echo_delay;
#X obj 640 215 freeverb~;
#X msg 605 163 bypass \$1;
#X text 445 -69 Frequencies;
#X text 755 342 To record the output audio;
#X obj 506 215 *~ 0.5;
#X msg 647 182 roomsize \$1;
#X obj 568 278 *~ 0.5;
#X floatatom 248 246 5 0 0 0 - - -;
#X obj 319 240 knob 20 20 0 1 0 0 empty empty empty 0 -8 0 8 -262144
-1 -1 1600 1;
#X text 298 219 Feedback;
#X text 239 225 Time(ms);
#X text 872 -181 Harshness & Character;
#X text 62 -180 Bubble & Liquid factor;
#X obj 509 311 *~ 0.2;
#X msg 708 271 open chemicals.wav;
#X text 32 389 << We designed this patch inroder to obtain the sounds
corresponding bubbles and chemical reactions. We also made this to
serve the purpose of creating some weird sound effects that we may
need in various parts of projects. The possibility of real-time interaction
makes things very easy to develop our glitch \, particle sounds without
bothering to develop differnet patches for everything. >> Javi & Albin
;
#X text 709 218 Reverb;
#X msg 616 257 0;
#X text 159 114 Gain;
#X text 977 116 Gain;
#X connect 0 0 25 0;
#X connect 0 0 26 0;
#X connect 0 0 30 0;
#X connect 1 0 0 2;
#X connect 2 0 1 0;
#X connect 3 0 9 0;
#X connect 4 0 2 0;
#X connect 9 0 0 0;
#X connect 10 0 3 0;
#X connect 10 0 18 0;
#X connect 11 0 3 0;
#X connect 11 0 18 0;
#X connect 12 0 3 0;
#X connect 12 0 18 0;
#X connect 13 0 3 0;
#X connect 14 0 3 0;
#X connect 14 0 18 0;
#X connect 15 0 3 0;
#X connect 15 0 18 0;
#X connect 16 0 17 0;
#X connect 17 0 0 1;
#X connect 18 0 19 0;
#X connect 19 0 1 1;
#X connect 21 0 20 0;
#X connect 22 0 20 0;
#X connect 24 0 9 1;
#X connect 25 0 39 0;
#X connect 26 0 32 0;
#X connect 27 0 26 0;
#X connect 30 0 32 0;
#X connect 30 0 39 0;
#X connect 31 0 26 0;
#X connect 32 0 39 0;
#X connect 33 0 25 1;
#X connect 34 0 25 2;
#X connect 39 0 23 0;
#X connect 39 0 20 0;
#X connect 39 0 23 1;
#X connect 39 0 20 1;
#X connect 40 0 20 0;
#X connect 43 0 32 1;
