#N canvas 383 70 499 514 10;
#X declare -lib jasch_lib;
#X obj 14 37 mrpeach/udpreceive 8000;
#X obj 14 60 mrpeach/unpackOSC;
#N canvas 0 22 450 278 (subpatch) 0;
#X array sequence 16 float 3;
#A 0 0.5 0.629618 0.204449 0.233918 0.526316 0.526316 0.520468 0.489027
0.482456 0.476608 0.5 0.444444 0.459646 0.517544 0.619037 0.576023
;
#X coords 0 1 16 0 200 140 1 0 0;
#X restore 288 85 graph;
#X obj 14 306 route /encoder1;
#X obj 23 84 print raw;
#X obj 148 129 unpack f f f;
#X floatatom 217 151 5 0 0 0 - - -;
#X floatatom 182 151 5 0 0 0 - - -;
#X floatatom 148 151 5 0 0 0 - - -;
#X obj 14 105 mrpeach/routeOSC /one /two /accxyz;
#X obj 81 178 routeOSC /multifader1;
#X obj 81 200 unpack s f;
#X obj 14 12 import jasch_lib;
#X obj 81 222 strtok /;
#X obj 81 244 atoi;
#X obj 114 305 tabwrite sequence;
#X obj 117 272 swap;
#X obj 287 8 loadbang;
#X msg 287 30 \; sequence const 0.5;
#X obj 14 335 + 120;
#X obj 55 335 f;
#X obj 14 363 clip 40 320;
#X floatatom 14 389 5 0 0 0 - - -;
#X obj 201 379 r send_OSC;
#X obj 14 457 prepend /one/label1;
#X obj 14 479 s send_OSC;
#X msg 220 424 connect 192.168.43.1 9000;
#X obj 201 479 mrpeach/udpsend;
#X obj 201 402 mrpeach/packOSC;
#X obj 14 433 list2symbol;
#X msg 14 411 tempo: \$1 bpm;
#X msg 227 448 disconnect;
#X connect 0 0 1 0;
#X connect 1 0 4 0;
#X connect 1 0 9 0;
#X connect 3 0 19 0;
#X connect 5 0 8 0;
#X connect 5 1 7 0;
#X connect 5 2 6 0;
#X connect 9 0 3 0;
#X connect 9 1 10 0;
#X connect 9 2 5 0;
#X connect 10 0 11 0;
#X connect 11 0 13 0;
#X connect 11 1 16 1;
#X connect 13 0 14 0;
#X connect 14 0 16 0;
#X connect 16 0 15 0;
#X connect 16 1 15 1;
#X connect 17 0 18 0;
#X connect 19 0 21 0;
#X connect 20 0 19 1;
#X connect 21 0 20 0;
#X connect 21 0 22 0;
#X connect 22 0 30 0;
#X connect 23 0 28 0;
#X connect 24 0 25 0;
#X connect 26 0 27 0;
#X connect 28 0 27 0;
#X connect 29 0 24 0;
#X connect 30 0 29 0;
#X connect 31 0 27 0;
